<svg viewBox="0 0 200 200" xmlns="http://www.w3.org/2000/svg">
  <rect width="200" height="200" fill="#f8f9fa" rx="5" ry="5"/>
  <rect x="20" y="160" width="160" height="20" rx="3" ry="3" fill="#47a89c"/>
  <rect x="20" y="130" width="160" height="20" rx="3" ry="3" fill="#5ab9ae"/>
  <rect x="20" y="100" width="160" height="20" rx="3" ry="3" fill="#6ec9be"/>
  <rect x="20" y="70" width="160" height="20" rx="3" ry="3" fill="#82d8cd"/>
  <rect x="20" y="40" width="160" height="20" rx="3" ry="3" fill="#96e6dc"/>
  
  <!-- Numbers -->
  <text x="35" y="56" font-family="Arial, sans-serif" font-size="14" font-weight="bold" fill="#2a6d65">1</text>
  <text x="35" y="86" font-family="Arial, sans-serif" font-size="14" font-weight="bold" fill="#2a6d65">2</text>
  <text x="35" y="116" font-family="Arial, sans-serif" font-size="14" font-weight="bold" fill="#2a6d65">3</text>
  <text x="35" y="146" font-family="Arial, sans-serif" font-size="14" font-weight="bold" fill="#2a6d65">4</text>
  <text x="35" y="176" font-family="Arial, sans-serif" font-size="14" font-weight="bold" fill="#2a6d65">5</text>
  
  <!-- Candidate lines -->
  <line x1="50" y1="55" x2="160" y2="55" stroke="#2a6d65" stroke-width="2"/>
  <line x1="50" y1="85" x2="160" y2="85" stroke="#2a6d65" stroke-width="2"/>
  <line x1="50" y1="115" x2="160" y2="115" stroke="#2a6d65" stroke-width="2"/>
  <line x1="50" y1="145" x2="160" y2="145" stroke="#2a6d65" stroke-width="2"/>
  <line x1="50" y1="175" x2="160" y2="175" stroke="#2a6d65" stroke-width="2"/>
  
  <!-- Ballot box at top -->
  <rect x="75" y="10" width="50" height="25" rx="2" ry="2" fill="#47a89c" stroke="#2a6d65" stroke-width="2"/>
  <path d="M75,15 L125,15" stroke="#2a6d65" stroke-width="1"/>
  <rect x="95" y="15" width="10" height="10" fill="white" stroke="#2a6d65" stroke-width="1"/>
  <line x1="95" y1="20" x2="105" y2="20" stroke="#2a6d65" stroke-width="1"/>
  <line x1="100" y1="15" x2="100" y2="25" stroke="#2a6d65" stroke-width="1"/>
</svg>
